
<!-- <?xml-stylesheet href="crisscross.css" type="text/css"?> -->
<svg xmlns="http://www.w3.org/2000/svg" xml:space="preserve" height="100%" version="1.1" style="shape-rendering:geometricPrecision; text-rendering:geometricPrecision; image-rendering:optimizeQuality; fill-rule:evenodd; clip-rule:evenodd"
viewBox="5500 0 19010 14643"
 xmlns:xlink="http://www.w3.org/1999/xlink">
 <g id="Layer_x0020_1">
  <metadata id="CorelCorpID_0Corel-Layer"/>
  <g id="_2407959859072">
   <path class="fil0" d="M13045 12203c-52,52 -153,-68 -160,-142 139,-23 188,115 160,142zm34 -132c-49,-47 -56,-102 -29,-178 120,-21 178,54 206,140 -46,49 -94,116 -177,37zm-6549 -134c31,-121 108,-173 214,-219l125 124c-40,85 -119,157 -236,196l-103 -100zm6296 43c-121,14 -240,-110 -249,-203 38,-57 224,4 249,203zm741 -257c-174,424 -605,62 -165,-144 96,41 123,53 165,144zm-760 -148c114,45 141,115 203,213 -105,146 -194,44 -294,-137l91 -75zm-6551 76c79,-196 217,-247 384,-24 -35,116 -92,140 -192,195 -116,-35 -149,-73 -192,-171zm587 -14c70,-161 200,-195 296,-33 -24,69 -54,148 -142,145 -78,-2 -117,-81 -155,-112zm5690 6c-32,63 -6,29 -56,73 -69,-33 -129,-91 -157,-151 39,-127 176,-15 214,78zm367 -159c54,-132 72,-105 159,-189 133,32 191,95 249,189 -43,119 -97,166 -214,208 -47,-42 -68,-58 -109,-99 -59,-58 -56,-43 -84,-109zm-202 55c-222,68 -292,-254 -22,-181 38,80 53,81 22,181zm-6705 -126c88,-187 281,-268 366,-24 -102,162 -266,262 -366,24zm574 -24c71,-240 262,-161 347,0 -35,101 -61,116 -157,160 -106,-42 -141,-69 -190,-160zm5719 75c-57,57 -151,-11 -184,-37 -62,-50 -63,-81 -42,-167 116,-77 303,127 226,204zm-5178 -112c130,-113 260,-295 376,-35 -59,96 -128,190 -283,189 -56,-65 -68,-55 -93,-154zm5584 -106c52,-81 89,-146 216,-143 48,51 94,69 46,168 -35,72 -193,214 -262,-26zm-430 -164c104,-104 210,84 255,140 -33,61 -51,83 -115,109 -58,-29 -243,-146 -140,-249zm-5952 69c88,-186 221,-222 325,-24 -43,118 -53,88 -129,166 -131,-17 -159,-48 -197,-143zm-442 152c-4,-12 -12,-11 -6,-49 8,-48 43,-82 79,-108 144,-106 162,-31 162,-30 -1,94 -125,206 -235,187zm973 -152c81,-254 285,-316 426,-71 -48,97 -138,176 -248,223 -95,-46 -122,-96 -177,-152zm604 -36c23,-137 83,-168 212,-215 81,43 63,41 124,98 -19,122 -90,180 -196,228l-140 -110zm5494 -118c64,-14 26,-34 85,31 67,73 29,28 34,85l-120 -116zm-519 -37c41,-73 70,-110 148,-146 111,42 171,75 192,193 -1,4 -143,326 -340,-48zm-6254 68c11,-106 89,-181 203,-181 17,93 -26,108 -76,151 -65,57 -50,56 -127,29zm424 -116c33,-77 121,-172 185,-202 112,-52 194,46 191,130 -4,96 -269,358 -376,72zm586 -71c38,-97 120,-161 199,-209 88,43 148,92 181,185 -84,208 -270,274 -380,24zm5690 59c-81,-15 -190,-119 -191,-214 79,47 186,111 191,214zm-6430 -124c-11,-99 122,-259 270,-243 51,161 -174,274 -230,267 -107,-14 1,6 -41,-23zm488 -174c36,-71 146,-182 220,-211 63,45 98,71 138,140 0,0 -144,394 -359,71zm4 -358c154,-82 140,136 -57,239 -174,90 -130,-139 57,-239zm3568 -595c249,216 310,240 544,480 188,193 958,822 1009,1046l-125 73c-88,-55 -214,-170 -284,-243 -57,-58 -82,-72 -139,-124 -56,-50 -75,-82 -131,-130l-1348 -1225c-55,-51 -262,-203 -126,-285 92,-56 529,345 600,406zm-2731 1163c71,-133 318,-349 447,-443l947 -840c96,-81 373,-463 469,-212 -1,43 -760,780 -847,859 -143,130 -723,709 -908,781 -37,-62 -71,-85 -109,-145zm6074 300c242,-249 2033,-1994 2134,-2040 242,96 159,213 19,334 -332,288 -2107,2118 -2306,2200 -100,-50 -121,-73 -145,-206l298 -288zm-3801 -1963c49,-143 151,-176 240,-286 276,122 1001,1022 1269,1282 131,127 641,655 689,815l-71 92c-184,-32 -417,-348 -547,-478l-919 -843c-46,-43 -83,-64 -132,-108 -154,-142 -433,-328 -529,-475zm-231 32c-184,90 -264,-173 -28,-123l28 123zm-1674 726c81,-67 129,-130 208,-196 156,-131 286,-265 436,-398 90,-80 125,-122 215,-214 59,-60 140,-126 210,-188 87,41 179,133 219,214 -64,109 -595,634 -706,720l-741 641c-163,140 -326,380 -495,46l655 -625zm5339 1427c-74,-24 -135,-80 -178,-152 -59,-99 -9,-128 49,-185l972 -958c117,-118 197,-218 319,-324l662 -624c78,-71 249,-294 342,-295 20,0 340,115 124,332 -246,246 -2146,2128 -2290,2206zm-4075 -2374c-113,-96 -69,-128 -68,-138l19 -37c76,-25 334,112 222,224 -61,60 -135,-18 -173,-49zm-2165 1384c22,-166 287,-359 396,-465 141,-138 280,-280 424,-410 185,-168 723,-695 887,-785 78,39 111,76 170,131 -72,202 -1101,1119 -1376,1359 -90,78 -134,154 -232,221 -141,96 -184,30 -268,-50zm4358 -552c296,259 495,523 786,785 127,114 127,221 -48,287 -114,-48 -422,-417 -527,-546l-635 -674c-104,-117 -745,-767 -757,-819 -20,-87 42,-118 110,-87 94,43 897,901 1071,1053zm-1785 -858c65,-88 192,-269 332,-257 138,180 -214,356 -238,362 -53,-44 -56,-35 -94,-105zm6250 65c140,-267 259,-297 396,-419l169 109c-35,173 -100,230 -283,224 30,128 -6,151 -76,210 -122,-17 -160,-51 -206,-124zm-2980 1912c40,-101 59,-107 133,-169l2054 -2042c42,-44 90,-100 163,-129 73,42 153,69 97,172 -14,26 -126,131 -156,157l-2125 2067c-46,41 -27,33 -81,59l-85 -115zm2642 -2234c55,-57 105,-102 184,-159 186,82 302,285 48,380 -116,-39 -192,-122 -232,-221zm-5079 -138c167,86 828,835 1017,998l741 784c66,74 196,166 196,301 -106,-4 -248,-154 -319,-226 -93,-94 -169,-169 -262,-262l-1066 -1054c-305,-305 -507,-414 -307,-541zm-1532 165c-63,-44 -72,-58 -65,-152 77,-67 256,87 221,153 -34,65 -116,26 -156,-2zm-281 -103c-38,110 -125,154 -203,223l-1300 1248c-47,41 -181,204 -248,90 -57,-98 109,-194 161,-248 160,-166 1307,-1398 1434,-1465 79,33 124,69 155,151zm1361 -72c77,-79 162,11 144,144 -105,7 -235,-51 -144,-144zm-697 167c40,-120 196,-267 292,-311 97,38 144,85 193,168 13,84 -296,518 -485,143zm3299 1905c40,-93 68,-112 132,-172 516,-485 1150,-1059 1640,-1551 97,-97 192,-185 292,-280 71,-68 217,-221 312,-261 268,132 85,250 16,327 -475,533 -1065,1112 -1573,1619l-455 403c-69,66 -75,69 -154,122 -103,-41 -166,-106 -209,-207zm3435 -1953c-88,-20 -76,-16 -133,-69 -8,-7 -73,-78 -79,-91 -41,-89 82,-376 334,-6 -33,97 -64,95 -122,166zm-5716 -134c-150,26 -244,-84 -151,-172 91,-87 181,30 151,172zm6358 -242c45,-4 38,-15 28,28 42,-11 35,-21 27,21 74,-99 34,33 -1,-46l-35 -70 -30 -66c67,-81 28,-66 143,-111 80,40 129,86 157,169 -50,74 -48,104 -163,121 -56,-16 -21,-16 -43,26l1 97c-185,129 -209,359 -418,48 47,-95 155,-192 254,-255l80 39zm-1353 294c-43,-146 77,-237 175,-298 76,38 105,66 137,144 -35,66 -76,120 -123,156 -94,70 -100,40 -189,-2zm-6534 -110l-31 45c-90,-5 -222,-115 -169,-169 68,-70 191,55 200,124zm1124 -11c-120,37 -250,-128 -203,-181 76,-85 252,52 203,181zm-917 -12c56,-88 233,-259 334,-311 94,50 121,74 163,168 -60,106 -367,492 -496,143zm6717 -90c-169,-94 -210,-168 -43,-283 85,23 100,43 164,79 4,141 -34,153 -122,204zm-661 -56c16,-107 130,-197 204,-255 259,104 116,271 -46,370 -87,-44 -107,-59 -158,-115zm972 -41c52,-172 116,-223 260,-294 412,184 -20,437 -24,438 -108,-18 -174,-98 -237,-144zm-5972 43c-120,-3 -250,-126 -171,-210 109,-117 198,56 224,131l-52 79zm-447 -248c43,49 28,71 12,131 -121,5 -262,-125 -159,-180 47,-25 130,30 147,49zm-888 200c36,-164 219,-324 324,-394 106,78 125,75 186,182 -105,158 -197,191 -299,331 -110,-22 -157,-65 -211,-119zm6645 -310c99,-120 179,-101 235,50 -91,158 -222,121 -235,-50zm409 50c45,-143 155,-221 242,-299 69,44 114,78 158,156 3,12 -153,488 -400,143zm-6037 45c-149,-54 -279,-235 7,-234 117,120 119,139 -7,234zm6607 -164c56,-89 54,-127 157,-169 409,199 28,581 -157,169zm-6994 66c-64,24 -148,-45 -177,-76 -64,-67 -44,-91 -15,-166 125,30 326,193 192,242zm125 -142c-143,-39 -310,-193 -95,-293 101,37 140,110 213,183l-118 110zm6616 -163c46,-109 89,-137 172,-191 331,135 -32,526 -172,191zm-7596 613c-17,15 33,46 -81,22l-191 -144c-252,-211 -446,-339 -699,-590l94 -93c117,29 420,300 501,383 127,130 450,340 377,423zm7048 -446c9,-26 460,-622 575,-520 89,78 2,150 -39,193 -135,140 -235,315 -418,436l-118 -109zm-7803 -457c77,-98 232,-247 354,-307 158,61 770,626 825,739 -33,87 -213,282 -258,307 -162,88 -487,-299 -645,-442 -74,-67 -230,-210 -275,-298zm-550 -67c87,-237 281,-42 345,71 -45,64 -62,137 -186,83 -78,-34 -132,-92 -159,-154zm-309 -238c47,-55 109,-151 218,-104 322,139 -92,452 -218,104zm1504 -103l525 478c65,55 182,120 147,231 -23,12 26,15 -60,16 -82,1 33,16 -38,-5l-369 -326c-83,-65 -132,-129 -212,-193 -58,-47 -223,-138 -142,-220 68,-70 98,-24 150,18zm-977 151c43,-103 235,-282 352,-337 142,57 152,85 233,188 -51,132 -231,286 -376,336 -96,-71 -131,-118 -210,-187zm1853 340l-71 63c-110,-10 -167,-79 -238,-143 -158,-142 -460,-372 -552,-546 43,-81 44,-77 122,-128 111,38 322,252 403,344 93,106 332,247 336,409zm-2668 -602c60,-239 255,-203 350,-24 -82,208 -247,192 -350,24zm1381 -47c-32,-31 -143,-107 -94,-168 63,-78 151,29 197,62 37,27 168,97 86,174 -78,74 -144,-26 -189,-69zm-830 17c77,-84 152,-150 244,-224 128,-103 227,-48 276,87 -33,66 -194,231 -248,278 -142,120 -228,-27 -272,-140zm-821 -185c63,-188 230,-260 336,-48 -48,125 -196,288 -336,48zm1722 -119c37,-79 68,-108 143,-148 99,42 209,149 238,253 -72,66 -89,145 -209,84 -75,-38 -144,-105 -172,-189zm-357 -162c88,50 173,85 128,217 -146,47 -20,4 -234,-102l107 -115zm-643 393c-234,-125 -192,-192 -30,-333 43,-37 143,-128 197,-129 77,-1 137,89 162,136 -28,139 -203,270 -329,326zm736 -469c91,-191 195,-192 301,-24 -50,209 -217,206 -301,24zm-1022 216c-362,-175 183,-447 191,-450 88,51 93,66 166,128 -41,124 -219,270 -357,322zm821 -216c-42,60 -5,19 -59,67 -102,-7 -177,-87 -207,-162 105,-146 244,7 266,95zm-72 -243c135,-283 291,-145 333,9l-153 139c-90,-27 -128,-83 -180,-148zm-392 -163c123,15 176,74 189,199 -109,54 -220,1 -268,-109l79 -90zm117 -94c95,-276 349,-144 364,64l-172 109c-81,-34 -151,-106 -192,-172zm1312 749c-75,-40 -141,-109 -188,-156 -159,-159 -11,-206 138,-356l1435 -1400c502,-503 337,-393 689,-149 -39,136 -344,422 -486,566l-781 768c-121,120 -698,669 -806,728zm-518 -487c70,-121 164,-180 267,-274 335,-306 494,-486 802,-794l536 -536c338,-345 397,-516 561,-278 -40,164 -824,870 -991,1038 -195,195 -832,898 -1020,993l-155 -150zm2374 -1826c21,-87 63,-127 113,-181 271,-300 425,125 425,127 -77,137 -145,179 -234,277 -117,-63 -229,-136 -303,-222zm656 -188c-1,-4 -5,12 -9,18 -114,46 -244,-129 -281,-219l64 -66c74,22 113,68 165,116 115,108 62,154 61,151zm-942 -58c22,-101 67,-111 131,-179 55,-59 88,-100 187,-130 63,68 172,108 74,246 -102,144 -271,260 -392,63zm-2621 1548c37,-90 840,-855 982,-998l520 -481c64,-58 449,-467 501,-474 122,33 175,62 208,166 4,87 -1322,1366 -1482,1513l-514 481c-98,-45 -164,-108 -215,-208zm3207 -1840c-113,111 -238,-28 -216,-106 29,-106 209,-24 216,106zm-2933 2064c167,-88 792,-712 967,-867l916 -895c318,-309 468,-584 633,-446 -9,104 -183,267 -259,343l-1471 1506c-105,105 -194,192 -298,298 -42,43 -377,518 -487,60zm2541 -2273c-23,-16 -57,-61 -35,-103 40,-73 177,-66 149,101 -40,15 -70,34 -114,2zm-725 25c71,-171 294,-457 477,-119 -98,137 -148,234 -278,313 -97,-46 -152,-93 -199,-194zm1044 -48c24,-87 100,-162 169,-204 111,-68 174,21 214,93 -83,193 -236,357 -382,111zm-233 -180c25,-62 220,-379 337,-153 -21,65 -86,141 -131,177 -99,78 -137,26 -206,-24zm-449 -179l28 -20 50 -37 34 46 30 18 30 18c35,-4 27,-12 25,22l18 30 16 31c38,19 42,18 4,56 13,42 23,36 -19,28 -64,46 80,-11 -27,13 -2,0 -12,2 -14,-3 -2,-5 -9,-5 -13,-7 -79,-49 -176,-100 -163,-194zm982 60c24,-82 106,-188 180,-213 117,-39 151,64 188,125 -45,80 -120,154 -203,205 -109,-34 -100,-48 -165,-117zm-645 -3c-390,-149 -68,-354 24,-393 112,45 113,78 193,136 -22,137 -115,208 -217,257zm711 -365c-1,150 -208,358 -275,207 -38,-86 124,-298 275,-207zm-604 -94c88,-225 274,-286 387,-48 -82,208 -263,284 -387,48zm-5597 5498l-282 -257c-126,-140 -271,-242 -401,-379 -149,-158 -252,-252 -393,-393 -132,-133 -278,-253 -397,-389 -237,-272 -631,-609 -800,-796 -165,-183 -613,-551 -826,-746 -74,-68 -367,-324 -457,-348 86,181 457,421 629,580l210 195c95,80 122,89 213,192l1849 1795c76,76 139,118 213,192 89,88 135,117 206,193 77,60 267,237 333,341 176,132 1783,1729 1786,1801 -33,111 -99,180 -230,212 -100,-67 -173,-150 -268,-231 -93,-79 -184,-166 -271,-253 -83,-83 -160,-173 -244,-256l-2075 -2022c-92,-104 -183,-157 -271,-254 -93,-103 -159,-156 -258,-241 -98,-84 -176,-167 -274,-250l-546 -471c-6,-3 -16,-6 -19,-8 -60,-34 -26,-61 -68,-8 49,30 99,81 141,145 186,138 362,312 529,470l399 339c242,224 349,361 645,618l515 486c444,411 1039,1038 1501,1500l490 498c-36,139 -125,192 -238,264l-176 -139c-79,-55 -136,-122 -196,-170l-536 -541 -14 -9 -92 -78c28,39 36,49 65,74l26 3c83,162 343,331 532,568 33,42 6,5 32,44 217,203 391,339 97,487 -138,-59 -792,-704 -985,-891 -140,-135 -485,-460 -568,-574 -135,-186 -1100,-1113 -1328,-1316 -60,-53 -111,-118 -184,-178 49,68 111,124 163,176 70,71 113,126 184,197l1882 1881c151,151 663,633 722,807 -162,317 -341,80 -496,-56 -425,-372 -829,-780 -1230,-1176 -29,-29 -32,-30 -60,-59l-52 -64c-5,5 -16,5 -17,13l1395 1393c98,93 162,80 150,273 -249,152 -504,371 -738,563 -61,50 -55,6 -63,100 105,78 372,-208 472,-288 42,-34 57,-56 98,-92 47,-42 61,-49 115,-101 69,-66 157,-166 247,-119 14,115 16,26 -21,83 -3,4 -46,47 -60,59 -50,43 -88,62 -137,103l-524 429c-81,58 -220,128 -221,244 113,8 106,-11 175,-76l771 -658c150,-111 252,-110 296,111 -386,274 -735,620 -1110,910 -86,67 -115,72 -126,204 110,-41 7,3 61,-28 10,-5 40,-25 47,-31l877 -765c204,-180 385,-376 518,-67 -141,215 -489,441 -710,614 -66,52 -77,26 -82,118 357,-76 903,-953 1011,-491 -42,43 -65,53 -114,92 -44,36 -91,80 -127,111 -108,94 -217,103 -205,243 243,-54 333,-307 578,-375 101,87 300,371 435,346 6,-97 -93,-157 -162,-222 -88,-83 -125,-102 -195,-209 198,-155 164,-344 469,31 46,57 163,157 216,79 88,-131 -394,-275 -317,-462 154,-171 231,-30 347,88 64,65 247,268 357,266 21,-152 -107,-188 -206,-273 -74,-64 -192,-173 -234,-264 55,-99 96,-144 213,-194 185,59 565,602 657,550 37,-30 74,-43 -77,-174 -166,-144 -344,-308 -473,-468 145,-326 303,-153 487,49 56,61 164,323 266,241 4,-5 9,-22 10,-18 0,1 52,-64 -51,-160 -349,-325 -527,-330 -198,-611l861 -807c754,-750 646,-674 961,-396l1309 1192c84,92 181,147 265,236 312,334 372,219 -44,602l-690 620c-68,57 -102,108 -168,165l-1219 1067c-74,69 -298,222 -315,340 138,22 560,-454 693,-580l342 -301c240,-190 451,-433 689,-620 186,-146 971,-936 1055,-933 80,35 148,98 172,178 -9,98 -923,844 -1066,988l-1122 974c-88,74 -258,182 -260,315 56,-35 97,-69 152,-113l1590 -1388c214,-175 583,-622 815,-696 72,43 99,62 135,159 -70,134 -980,945 -1189,1156 -36,37 -64,53 -103,88 -83,75 -114,114 -198,182 -269,214 -871,798 -1149,1019 -73,58 -112,113 -186,171 -74,58 -166,91 -155,212 101,-32 666,-552 782,-658l386 -352c72,-57 114,-113 185,-172 86,-72 111,-93 199,-182 61,-62 125,-106 194,-165l961 -897c91,-98 274,-306 408,-328 81,39 161,118 201,213 -98,180 -1359,1291 -1605,1525l-667 595c-74,68 -87,86 -165,145 -67,51 -134,100 -153,200 153,-55 257,-167 365,-274l325 -294c117,-95 210,-195 328,-292l981 -924c444,-409 664,-826 825,-467 -88,145 -550,541 -685,654 -62,51 -76,57 -143,120 -311,292 -840,722 -1177,991 -92,74 -224,182 -239,309 142,-69 455,-381 582,-490 98,-85 204,-162 298,-250 91,-85 203,-168 298,-251 58,-50 84,-76 140,-121 55,-45 80,-78 138,-123 59,-46 80,-72 139,-123l731 -639c316,105 1218,1304 1454,1279 -32,-94 -565,-594 -665,-685l-350 -340c-104,-98 -295,-212 -334,-361 216,31 463,530 688,555 -24,-234 -598,-457 -536,-723 118,-16 175,72 252,149 142,140 503,591 681,591 38,-118 -5,-98 -167,-225 -138,-108 -559,-513 -608,-631 285,-442 419,-58 672,211 168,179 339,416 458,405 29,-146 -84,-174 -170,-242 -100,-79 -94,-132 -179,-248 -124,-169 -295,-229 -428,-430 85,-189 1036,-1030 1207,-1199l917 -893c106,-107 185,-220 330,-299 242,102 475,361 663,537 83,77 111,159 244,164 10,-297 -709,-531 -813,-817 196,-206 263,77 659,445 77,71 562,642 667,563 119,-91 -146,-174 -267,-273 -192,-157 -774,-746 -861,-918 43,-87 95,-158 207,-188 236,140 806,750 970,792 153,39 43,14 86,-11 3,-82 -152,-138 -215,-195 -58,-52 -82,-58 -136,-102 -162,-130 -544,-424 -617,-582 59,-134 116,-146 190,-242l169 53c-18,-52 -61,-109 -46,-154 15,-46 78,-88 141,-76 92,17 780,809 945,958l505 448c85,69 186,182 283,122 -111,-112 -343,-266 -478,-381 -266,-227 -527,-499 -776,-748 -80,-80 -392,-365 -411,-468 -21,-112 309,-405 381,-496 40,-49 377,-357 172,-367 -89,-5 -263,273 -316,343 -51,68 -95,117 -158,199 -62,81 -88,152 -190,198 -100,-21 -135,-70 -163,-173 3,-105 530,-574 643,-687 62,-62 191,-151 153,-279 -136,-2 -353,311 -449,411 -75,77 -153,153 -220,233 -87,105 -117,141 -226,217 -89,-50 -182,-120 -213,-238 171,-169 275,-334 445,-519 76,-83 147,-176 221,-257 73,-81 211,-185 133,-297 -247,102 -594,822 -909,1002 -224,-223 -130,-225 204,-585l239 -286c84,-90 332,-325 316,-423 -1,-1 -14,-125 -155,60l-712 860c-53,60 -80,96 -172,81 -29,-89 -16,-105 37,-169l342 -373c108,-115 381,-415 394,-566 -152,3 -365,360 -459,477 -572,713 -370,468 -755,222 84,148 161,183 252,333 -151,377 -339,146 -435,54 141,188 287,268 -115,504l-174 -123c193,308 65,169 -97,402 -176,253 -271,230 -458,21 -38,27 -16,24 16,52 67,59 99,87 143,183 -57,141 -438,472 -555,581 -106,98 -189,179 -297,275l-297 298c-148,131 -1086,1113 -1202,1111 -97,-1 -438,-404 -511,-491 -266,-317 -1366,-1382 -1468,-1559 85,-230 335,-211 230,-395 -168,-5 -163,207 -369,268 -64,-52 -60,-34 -98,-111 40,-109 155,-153 134,-276 -105,-6 -159,111 -252,169 -106,-39 -123,-71 -159,-176 91,-104 455,-385 463,-499 -188,-45 -413,301 -566,396 -109,-31 -118,-46 -156,-138 95,-214 578,-492 587,-691 -150,-11 -200,64 -264,142l-202 227c-55,67 -287,437 -426,12 50,-79 73,-111 137,-158 73,-53 164,-99 94,-161 -135,-48 -266,150 -341,211 -160,-62 -265,-209 -382,-321 -81,-78 -291,-279 -347,-381 44,-127 200,-241 303,-331l333 -310c118,-100 218,-204 338,-306 63,-54 122,-99 177,-157 67,-70 99,-112 160,-173 219,-218 439,-408 647,-639 197,-218 408,53 553,207 69,74 114,87 186,147 522,439 1074,879 1580,1326l505 471c228,202 425,450 684,619l1 -27c-62,-67 -116,-120 -184,-187 -206,-204 -292,-251 -405,-358l-1853 -1647c-149,-112 -291,-233 -433,-353 -220,-186 -240,-151 -410,-377 76,-162 117,-153 253,-260 101,35 324,230 406,309l32 -2c-4,40 -12,31 29,21l86 92 16 34c73,49 69,30 113,92l725 629c89,72 194,151 250,200 29,-20 31,-3 -50,-89l-925 -785c-29,-15 -45,-20 -66,-35 -84,-59 -9,2 -52,-54l-19 -33 -53 -53 -24 3c8,-39 13,-27 -29,-21 -36,-71 -143,-143 -206,-197 -47,-41 -209,-148 -125,-233 126,-84 241,130 376,185 -45,-100 -171,-176 -265,-301 38,-104 159,-209 246,-259 74,26 82,51 169,72l-117 -144c129,-198 189,-292 421,-95l338 291c58,31 78,38 129,77 42,-7 32,-16 32,27l19 33c25,15 28,13 50,30 33,25 14,12 36,40l216 185c80,61 129,131 234,170 -82,-130 -292,-269 -424,-380l-86 -69 -55 -49c-62,-38 -74,-39 -117,-82 -41,5 -31,14 -31,-28 -3,-4 -8,-15 -9,-11l-362 -297c-182,-171 -36,-247 197,-488 97,-101 297,-189 237,-351 -113,-7 -111,30 -189,112 -143,150 -323,433 -509,504l-191 -131c271,246 121,236 -158,578 -48,59 -109,127 -187,163 -133,-39 -215,-121 -275,-216 52,-134 118,-227 293,-261 34,-147 83,-210 184,-265 178,-96 48,-70 217,-236 85,-83 141,-146 221,-231 44,-47 75,-73 115,-126 89,-116 56,-113 18,-148 -91,-84 -235,186 -284,243 -79,93 -219,277 -300,314 -77,-38 -110,-61 -146,-138 46,-94 146,-194 215,-265 76,-78 219,-162 213,-280 -253,-34 -376,468 -606,417 -81,-160 195,-311 284,-412 72,-81 103,-123 195,-185 120,-81 187,-57 185,-211 -149,-26 -355,195 -433,272 -264,262 -331,526 -587,212 21,-59 585,-652 642,-704 77,-69 221,-123 191,-257l-74 -9c-144,28 -666,753 -866,871 -175,-49 -545,-412 -710,-548 -470,-388 -938,-750 -1397,-1152 -155,-136 -375,-268 -521,-432 -59,-66 -80,-133 -207,-128 -4,196 236,283 456,476 291,254 604,474 902,718l1232 983c92,69 98,55 142,183 -242,307 -284,179 -710,-186 -119,-102 -233,-190 -352,-292l-714 -573c-132,-106 -233,-184 -357,-286l-547 -430c-62,-54 -126,-107 -214,-65 12,97 44,78 138,142 70,48 103,79 160,125 218,177 461,331 677,515 322,274 666,501 996,767 172,139 530,374 641,538 -35,107 -116,192 -233,220 -390,-287 -683,-621 -1049,-926 -66,-55 -83,-67 -152,-134 -186,-183 -418,-335 -614,-507l-311 -260c-101,-97 -183,-247 -337,-210 -12,110 21,116 91,170 378,291 779,574 1136,888l927 788c110,105 272,150 245,324 -171,32 -534,-364 -688,-501l-676 -562c-233,-178 -453,-368 -683,-556 -171,-140 -369,-253 -514,-415 -56,-62 -77,-161 -151,-88 -22,22 -93,60 42,172 51,42 122,92 180,131l1714 1334c173,149 534,407 642,585 -44,90 -193,245 -303,296 -123,-64 -185,-155 -291,-237 -244,-189 -468,-428 -715,-619 -250,-193 -475,-419 -728,-629l-280 -244c-71,-70 -178,-283 -289,-201 -15,16 -49,-33 -25,84 16,78 713,596 808,670l595 476c182,128 418,346 593,503 131,117 189,115 274,264 -44,127 -777,825 -929,990l-723 705c-55,49 -217,209 -269,235 -136,68 -212,-72 -289,-141l-476 -475c-83,-85 -185,-147 -270,-231l-710 -718c-73,-73 -171,-221 -291,-141 -97,124 153,203 218,263l1578 1447c129,129 46,216 -91,275 -65,-25 -188,-148 -247,-199l-1441 -1345c-59,-59 -160,-267 -240,-184 -96,101 219,296 284,354 49,43 69,75 116,121l490 440c88,74 143,147 231,221l489 463c73,66 211,142 199,281 -105,60 -130,30 -215,-49l-591 -506c-166,-129 -449,-366 -576,-520 -95,-115 -56,-189 -209,-160 -22,203 480,561 644,702 51,44 117,101 182,151l578 463c-3,123 -42,139 -126,223 -62,62 -114,104 -211,137 -129,-112 -260,-215 -406,-347 -69,-63 -131,-123 -204,-177 -86,-64 -123,-113 -202,-180l-392 -370c-37,-33 -474,-505 -433,-230 7,48 5,31 31,58 21,21 84,55 114,79 89,69 118,95 205,176l310 262c228,213 492,400 712,621 207,208 241,196 -12,403 -113,-34 -288,-198 -380,-272l-914 -754c-64,-51 -120,-102 -220,-77 9,129 36,99 142,178l917 703c125,101 260,175 338,313 -142,193 -389,382 -577,536 -69,56 -132,120 -129,255 134,-9 583,-526 720,-642 120,-100 160,-58 255,39 -15,74 -81,168 -146,209 85,85 121,-90 245,-111 114,10 165,59 203,131 -26,68 -262,283 -333,362 -74,82 -335,293 -308,401l736 -676c386,87 156,279 -11,430 -144,130 -768,728 -783,829 178,-27 930,-996 1115,-1025 126,29 181,82 211,199l-579 532c-88,73 -157,95 -162,231 219,-15 723,-714 864,-714 91,0 295,198 375,261 193,153 421,315 569,501 -71,205 -415,466 -563,635 -220,250 -803,874 -1023,1048 -174,-61 -411,-333 -521,-453 -308,-337 -665,-655 -982,-972 -125,-125 -397,-355 -485,-483z"/>
   <path class="fil0" d="M5085 9533c6,-6 19,-21 21,-15 1,8 20,-12 -14,-37 -39,-29 -11,-5 -38,-31l-199 -206c-604,-595 -1243,-1269 -1811,-1809 -696,-662 -1276,-1339 -2008,-2017 -74,-69 -192,-222 -320,-217 9,106 80,84 269,244l285 262c549,513 1136,1169 1741,1736l2045 2051c27,30 12,12 30,38z"/>
   <path class="fil0" d="M2728 7690c-59,-97 -274,-284 -367,-383l-33 -38c-211,-240 -415,-402 -576,-567 -166,-170 -314,-327 -481,-496 -121,-123 -393,-418 -548,-462 87,126 377,357 508,479 228,213 1271,1292 1498,1467z"/>
   <path class="fil0" d="M3579 9160c1,-93 -481,-527 -572,-617l-1864 -1771c136,208 980,945 1230,1191l1206 1198z"/>
   <path class="fil0" d="M13459 5792c-50,-115 -109,-124 -188,-202l-614 -552c-85,-79 -131,-99 -210,-171l-461 -325 631 537c145,133 268,232 410,352 126,106 299,309 433,361z"/>
   <path class="fil0" d="M2057 6042l-861 -832c-61,-60 -242,-232 -311,-242 5,107 458,470 561,564 155,142 451,410 611,510z"/>
   <path class="fil0" d="M17390 8671l-36 -20 -18 17c65,129 192,191 297,278l776 652c37,27 47,40 84,62l108 15c-85,-104 -885,-668 -1210,-1003z"/>
   <path class="fil0" d="M910 6518c-95,-58 -731,-757 -908,-765 20,68 36,53 92,106l570 503c79,79 118,149 247,157z"/>
   <path class="fil1" d="M5406 9808l-26 -3c77,120 178,236 288,317 66,49 93,80 149,137 73,73 75,115 154,161 -26,-39 1,-3 -32,-44 -189,-237 -450,-406 -532,-568zm746 720c-32,-46 10,3 -34,-45l-147 -140c-133,-101 -312,-377 -550,-526l536 541c60,48 117,115 196,170z"/>
   <path class="fil0" d="M13768 6356l27 20 26 21c38,-2 27,-10 27,31 33,51 105,108 170,177 63,67 127,94 185,165 59,34 65,34 112,86l-133 -159c-65,-78 -127,-115 -194,-181 -85,-85 -121,-105 -205,-172l-90 -68 2 -7 -6 22 80 63zm588 532c-7,37 -14,28 24,24 -4,34 -11,25 24,24l25 24 24 23 25 23 24 23 15 19c14,-29 17,-22 -15,-19 2,-35 11,-27 -24,-23 2,-35 10,-28 -25,-23 2,-35 10,-28 -24,-23 2,-36 11,-29 -25,-24 4,-37 12,-29 -24,-24 6,-39 15,-32 -24,-24l-15 -2 15 2z"/>
   <path class="fil0" d="M13732 6058l433 373c39,-33 24,-15 -3,-43 -2,-2 -9,-9 -11,-11 -3,-3 -8,-9 -11,-12 -164,-179 -73,-102 -264,-238 -21,-15 -36,-26 -55,-40 -5,-4 -21,-16 -26,-20 -3,-3 -9,-8 -12,-11 -3,-3 -9,-10 -11,-12 -2,-2 -7,-8 -11,-12 -5,5 -17,3 -18,11 -1,8 -7,11 -12,15z"/>
   <path class="fil1" d="M14203 6771c46,63 71,67 138,115l15 2c38,-7 30,-15 24,24 36,-6 28,-13 24,24 36,-5 27,-13 25,24 34,-5 26,-12 24,23 35,-4 26,-12 25,23 34,-4 26,-12 24,23 32,-2 29,-10 15,19 48,104 107,107 236,231 -117,-175 -408,-469 -569,-582l133 159c-47,-52 -53,-52 -112,-86z"/>
   <path class="fil0" d="M13135 4877c-31,-50 -129,-137 -183,-183l-633 -535c68,85 110,118 181,179 150,129 252,239 423,363 74,54 152,119 213,176z"/>
   <path class="fil0" d="M5924 7550c113,-66 199,-169 276,-271 -102,48 -93,56 -173,116 -60,44 -149,64 -102,155z"/>
   <path class="fil0" d="M13413 6039c-38,-73 -240,-267 -313,-310 2,83 -7,37 58,93l255 218z"/>
   <path class="fil0" d="M14658 5617c-39,-61 -80,-95 -126,-144 -79,-83 -81,-94 -184,-132 25,38 23,45 66,83l244 193z"/>
   <path class="fil0" d="M14762 5711c2,5 76,51 275,257 83,86 162,151 255,237 -198,-188 -301,-343 -505,-502l-25 8z"/>
   <path class="fil1" d="M15231 7713c-8,-101 -24,-118 -138,-132 18,89 47,130 138,132z"/>
   <path class="fil1" d="M13457 4608c-49,-129 -25,-107 -153,-157 36,89 64,120 153,157z"/>
   <path class="fil1" d="M14263 5287c33,-20 -44,-76 -99,-117 -7,-5 -13,-9 -20,-14 -8,-6 -17,-9 -24,-14 -8,-5 -17,-10 -26,-15l26 56c70,93 48,26 143,104z"/>
   <path class="fil1" d="M14978 7156c-31,-69 -19,-48 -74,-103 -58,-58 -35,-43 -107,-76 44,71 109,144 181,179z"/>
   <path class="fil1" d="M13689 6292l6 -22 -100 -96c-31,26 -47,9 21,71 48,44 13,24 73,47l80 63 27 20 26 21 27 31c0,-41 11,-33 -27,-31l-26 -21 -27 -20 -80 -63zm4 -16l90 68c-21,-23 -8,-16 -38,-37 -4,-3 -48,-28 -52,-30z"/>
   <path class="fil1" d="M2433 6362c-21,-23 -8,-18 -38,-39 -25,-17 -40,-22 -74,-37 25,104 93,154 166,206 -42,-65 -92,-115 -141,-145 42,-53 8,-26 68,8 3,2 13,5 19,8z"/>
   <path class="fil1" d="M13059 11113c-5,-57 33,-12 -34,-85 -59,-65 -21,-45 -85,-31l120 116z"/>
   <path class="fil1" d="M12523 3847c29,35 -9,17 57,53 38,21 44,15 72,24l32 27c0,-43 11,-34 -32,-27 -51,-39 -71,-45 -129,-77zm34 -20l-31 -28c0,42 -11,33 31,28 43,43 55,44 117,82 -26,-34 16,-9 -51,-53 -35,-23 -42,-19 -66,-29z"/>
   <path class="fil1" d="M16895 8302c10,-43 17,-32 -28,-28 0,39 -10,30 28,28l27 21 28 22c22,-42 -13,-41 43,-26l-108 -113 35 70c36,79 75,-52 1,46 8,-41 15,-32 -27,-21z"/>
   <path class="fil1" d="M4750 7985l333 341c-66,-104 -256,-281 -333,-341zm-48 -96l282 257 -282 -257z"/>
   <path class="fil0" d="M13496 5199c2,2 129,152 255,181l-255 -181z"/>
   <path class="fil1" d="M15726 6633c-23,-100 36,-68 -88,-82 45,95 -5,40 88,82z"/>
   <path class="fil1" d="M11818 4675c31,42 -15,3 51,54 17,13 41,24 61,38 -44,-63 -40,-44 -113,-92zm-6 -42c43,56 -32,-5 52,54 21,15 38,20 66,35 -27,-30 8,-5 -52,-48 -23,-16 -40,-24 -66,-41z"/>
   <path class="fil1" d="M10136 3051l28 -20 84 9 30 18 30 18 25 22 18 30 16 31 4 56 -19 28 -54 3c4,3 12,3 13,7 2,4 11,3 14,3 107,-24 -36,33 27,-13 42,8 32,14 19,-28 37,-37 33,-36 -4,-56l-16 -31 -18 -30c2,-34 9,-26 -25,-22l-30 -18 -30 -18 -34 -46 -50 37 -28 20z"/>
   <path class="fil1" d="M11716 4550c-41,10 -33,20 -29,-21l-32 2 147 110 -86 -92zm24 -3l53 53c-21,-34 12,-17 -53,-53z"/>
   <path class="fil1" d="M14281 7405l-1 27c29,46 1,33 79,70l-79 -97z"/>
   <path class="fil0" d="M13757 4859c4,5 16,37 88,46 -37,-27 -31,-23 -61,-63l-27 17z"/>
   <path class="fil1" d="M12702 3983c22,26 8,17 38,41 1,0 45,28 47,29 -22,-28 -3,-15 -36,-40 -21,-17 -24,-15 -50,-30zm26 -24l86 69c-22,-26 -7,-16 -38,-39 -21,-16 -24,-16 -48,-30z"/>
   <path class="fil1" d="M17337 8668l18 -17 36 20c0,-42 9,-31 -36,-20l-49 -32 31 48z"/>
  </g>
 </g>
</svg>
