<svg xmlns="http://www.w3.org/2000/svg" xml:space="preserve" height="100%" version="1.1" style="shape-rendering:geometricPrecision; text-rendering:geometricPrecision; image-rendering:optimizeQuality; fill-rule:evenodd; clip-rule:evenodd"
viewBox="0 0 21000 10596"
 xmlns:xlink="http://www.w3.org/1999/xlink">
 <g id="Layer_x0020_1">
  <metadata id="CorelCorpID_0Corel-Layer"/>
  <g id="_2407772563728">
   <path class="fil0" d="M10650 9846c-198,-240 -368,-510 -553,-752l-596 -746c-201,-247 -406,-441 -598,-692 -116,-151 -158,-203 -295,-352 -679,-738 -1826,-2751 -2052,-3945 -150,-793 118,-1576 513,-2002 199,-215 376,-468 769,-525 389,-56 833,67 1133,203 802,364 1465,1369 1760,2207 113,323 192,740 306,1027 511,85 445,-249 502,-709 147,-1195 209,-1748 1178,-2603 216,-190 545,-359 923,-299 702,112 1071,1768 648,2748 -789,1828 -1486,3329 -2622,4902l-940 1464c-7,8 -18,18 -24,25l-52 48zm512 -7486l-50 92c-74,15 -57,32 -58,-40 -112,-246 -355,-601 -511,-828 -197,-288 -410,-511 -677,-709 -2564,-1900 -4403,787 -3829,2862 363,1311 1132,2728 1823,3622 400,518 829,971 1219,1507l1152 1616c742,579 1213,-555 1492,-962 1598,-2330 1668,-2495 2933,-5281 336,-740 560,-1261 431,-2219 -53,-394 -130,-715 -293,-1040 -141,-281 -387,-622 -629,-757 -753,-420 -1551,-1 -1967,404 -314,306 -958,1112 -1038,1734z"/>
   <path class="fil0" d="M455 2479c-423,138 -378,568 48,653 280,56 867,47 1192,61 429,17 2599,220 2683,-334 76,-504 -890,-358 -1499,-386 -442,-21 -2107,-98 -2425,6z"/>
   <path class="fil0" d="M19763 110c-276,86 -2410,1149 -2583,1297 -313,267 -22,716 453,547 132,-47 2399,-1186 2558,-1322 323,-275 85,-682 -427,-522z"/>
   <path class="fil0" d="M17527 6531c-521,0 -571,429 -272,617 111,70 864,151 1064,185 592,101 1591,504 2069,196 89,-569 -614,-583 -1100,-705 -806,-202 -951,-293 -1762,-293z"/>
   <path class="fil0" d="M3461 4882c-397,78 -2647,480 -2833,793 -263,443 342,430 634,355 658,-167 1296,-306 1956,-449 244,-53 825,-111 913,-295 196,-409 -384,-461 -670,-405z"/>
   <path class="fil0" d="M4785 7712c97,-163 14,-384 -116,-443 -496,-224 -2631,1297 -2874,1602 -414,519 227,407 524,247 288,-154 545,-290 834,-459 267,-156 1557,-821 1633,-947z"/>
   <path class="fil0" d="M20207 3030c-615,115 -1189,227 -1796,346 -284,56 -629,93 -590,442 79,709 1749,25 2353,-152 264,-77 677,-124 727,-349 93,-418 -419,-338 -695,-287z"/>
   <path class="fil1" d="M11054 2412c0,72 -16,55 58,40l50 -92c-56,45 -36,19 -108,52z"/>
  </g>
 </g>
</svg>
