<svg xmlns="http://www.w3.org/2000/svg" xml:space="preserve" height="100%" version="1.1" style="shape-rendering:geometricPrecision; text-rendering:geometricPrecision; image-rendering:optimizeQuality; fill-rule:evenodd; clip-rule:evenodd"
viewBox="0 0 4191 8056"
 xmlns:xlink="http://www.w3.org/1999/xlink">
 <g id="Layer_x0020_1">
  <metadata id="CorelCorpID_0Corel-Layer"/>
  <g id="_2407885262992">
   <path class="fil0" d="M2182 5539c-21,-119 43,-20 54,20 35,37 37,6 59,112 3,129 55,281 74,433 53,418 60,1147 -262,1440 -154,-299 -137,-1253 -25,-1679 -1,-12 -1,-39 -4,-35 -1,2 -23,-165 104,-291zm-2054 -3417l42 -34c143,-405 151,-1449 653,-1488 207,51 442,1157 567,1503 321,888 854,2376 646,3359 -186,879 -114,1539 -185,1958 53,103 54,54 -19,151 -149,-8 -85,8 -131,-73 -207,-100 -341,-512 -453,-719 -141,-262 -224,-534 -346,-788 -237,-490 -361,-1118 -494,-1702l-40 -45c-3,-3 -18,-10 -22,-18l-16 73c111,750 821,3588 1821,3721 141,-125 132,-266 209,-467 64,-166 169,-248 188,-428 135,-1293 -438,-1568 -143,-2815 210,-887 504,-2509 902,-3273 166,-320 333,-689 587,-686 193,435 84,1165 8,1769 -241,1915 -168,1977 -752,3924 -104,347 -177,677 -325,1006 -95,211 -396,653 -388,820 333,131 651,-1076 704,-1254 169,-569 347,-1154 491,-1728 256,-1020 340,-2204 463,-3251 49,-411 125,-1195 -52,-1462 -302,-455 -780,623 -886,863 -206,465 -389,1178 -509,1693 -78,332 -281,1478 -410,1673 -114,-80 -121,-276 -162,-499 -33,-178 -81,-361 -130,-546 -200,-754 -439,-1251 -673,-2063 -90,-313 -139,-882 -524,-917 -554,300 -541,1152 -621,1745zm241 2046c-53,11 -39,-65 -47,60l51 -64 -3 4zm-75 -22c48,14 29,20 45,-36 -10,-20 26,-96 -45,36z"/>
   <path class="fil0" d="M243 3830l61 113 4 -35c46,-190 -18,-396 -39,-588 -59,-16 -42,0 -6,-61l-45 28c-43,207 3,352 24,544z"/>
   <path class="fil1" d="M131 2714c69,-38 83,120 98,-168 -102,61 -98,-162 -98,168z"/>
   <path class="fil1" d="M2082 5865l100 -326 54 20c23,57 39,80 59,112 -22,-105 -24,-74 -59,-112 -10,-40 -74,-138 -54,-20 -127,126 -105,293 -104,291 3,-4 3,23 4,35z"/>
   <path class="fil1" d="M114 2474c42,-28 128,132 84,-168 -57,43 -31,-16 -70,74 -9,22 -13,69 -14,94z"/>
   <path class="fil1" d="M295 4147l36 152 16 -73c5,8 20,16 22,18l40 45c5,-179 15,-55 -36,-124l-51 64c9,-125 -6,-49 47,-60 13,-61 26,-43 -30,-58 -16,56 3,51 -45,36z"/>
   <path class="fil0" d="M221 3009l-12 -210c-16,7 -59,-7 -49,97 11,107 27,74 61,113z"/>
   <path class="fil1" d="M1701 7497c45,81 -19,64 131,73 73,-97 71,-48 19,-151l-19 137 -130 -59z"/>
   <path class="fil1" d="M219 3286l45 -28c-37,61 -53,45 6,61l-6 -61 -12 -106c-44,37 -37,-28 -52,62 -21,131 -10,11 19,72z"/>
   <path class="fil1" d="M128 2122l-4 114c49,-38 36,29 56,-63 33,-152 8,-15 -10,-86l-42 34z"/>
   <path class="fil1" d="M308 3908l-4 35 -61 -113c31,126 9,83 65,159 56,-70 36,-25 1,-81z"/>
  </g>
 </g>
</svg>
