<svg xmlns="http://www.w3.org/2000/svg" xml:space="preserve" height="100%" version="1.1" style="shape-rendering:geometricPrecision; text-rendering:geometricPrecision; image-rendering:optimizeQuality; fill-rule:evenodd; clip-rule:evenodd"
viewBox="0 0 14305 12382"
 xmlns:xlink="http://www.w3.org/1999/xlink">
 <g id="Layer_x0020_1">
  <metadata id="CorelCorpID_0Corel-Layer"/>
  <g id="_2407964371952">
   <path class="fil0" d="M3612 373c-28,-101 35,-122 -91,-123 -104,-1 -159,34 -251,-13 -291,-147 -312,-11 -373,-2 -137,-23 -33,-42 -144,-55 -36,-4 -137,-11 -169,-9 -59,4 -36,14 -107,20 -108,10 3,-66 -111,-9l-126 12c-86,97 -226,92 -328,124 -9,3 -34,11 -42,14l-366 168c-25,26 -32,68 -76,97 -93,60 -69,10 -134,104l-91 135c-43,20 -39,14 -93,30 -6,2 -13,4 -19,6 -88,27 -119,54 -159,133 -65,129 -220,221 -226,251 -1,5 -4,16 -5,22 -1,7 -3,31 -4,37l-279 355c37,82 74,24 18,128 -55,102 22,54 -90,47l-95 197 74 138c-84,68 -41,21 -65,116 -15,59 -66,107 -104,141 28,115 36,50 46,112 14,84 6,126 -48,170l70 88 -49 134c-25,67 -17,39 -28,59 -78,147 17,-72 -27,42 -49,128 56,86 57,209l-69 404c61,119 66,45 89,191 14,86 7,167 21,205l-74 21c53,103 -15,20 102,86 -30,92 16,12 -66,79 62,67 34,25 71,106l21 103c-18,165 72,53 -46,184 65,137 119,134 25,252 50,34 33,18 92,43 -17,76 5,132 18,178 1,5 4,12 5,17l1 53c10,123 14,52 49,116l24 47c20,75 -45,164 122,61 -26,101 17,88 50,190 -46,104 -69,18 -68,172 1,130 34,104 72,172 45,80 19,204 44,276 2,6 -22,-30 23,42 2,4 13,24 15,19 2,-5 11,14 16,21 31,-43 11,-41 75,-53 -11,118 -9,8 -21,61 -23,97 59,72 29,187 -69,260 51,196 128,196 -52,111 30,71 4,283 95,91 142,103 94,229 106,41 81,20 126,97 -6,6 -21,12 -23,15 -25,32 -10,-23 -17,40 155,44 158,67 164,199 5,110 -11,-35 -11,101 45,30 -2,7 44,27 60,26 4,4 47,14 130,30 83,62 70,217 80,58 56,77 91,156 47,107 128,83 62,192 111,27 122,83 171,176 37,71 112,109 75,196l133 17c46,97 168,201 86,313 111,18 108,58 185,127 -32,100 -39,24 -11,119 26,-78 -17,-31 90,-61l126 203c6,25 9,54 15,83 105,54 57,-24 119,88 97,176 29,103 180,213 88,64 4,40 143,74 188,45 83,123 153,245 13,22 58,51 96,109 49,75 -30,68 100,43l-56 107 146 9c29,70 18,31 34,69 59,134 125,48 200,189 3,5 31,72 42,99 145,-9 119,-63 190,23l16 -66c107,68 9,-8 59,122l59 126c1,-4 5,14 9,21 6,1 14,2 17,2l148 -9c56,88 31,94 64,150 72,122 93,23 42,160l138 -26c20,59 29,64 59,102 142,-12 45,-31 140,-34 27,31 12,25 21,47 48,115 59,23 76,176 141,-18 96,49 219,32 101,-14 101,26 207,68 33,-79 65,-96 -13,-110 27,-3 60,-6 87,-12 212,-52 -43,-299 -136,-351 -85,-47 -97,-95 -208,-58 -26,-146 -3,-70 -139,-120l-57 -102c-104,-18 -151,-12 -129,-132 -178,-24 -154,-53 -256,-170l-169 13c26,-134 -214,-394 -346,-368l9 -41c-1,-4 -3,-11 -5,-15l-41 -92c-84,5 -66,15 -147,14 -46,-74 -100,-122 -85,-206 -95,-24 -98,-22 -143,-96 -40,-65 -39,-73 -30,-154 -137,9 -83,-6 -209,-26 0,-91 10,-76 -20,-142 84,-23 39,77 90,-38 -126,-53 -104,-14 -228,-25l5 -3c0,0 1,-4 1,-4l-11 -28c-26,-55 4,31 -28,-51 -14,-38 -9,-23 -15,-60 -24,-138 1,-64 -53,-78 -33,-21 -67,-99 -143,-150 -80,-53 -59,-129 -125,-171 5,-4 13,-9 15,-11l-94 -59c-4,-78 -10,-113 -50,-167l-57 -52c-71,-54 -182,-166 -112,-283 -123,-9 -132,-7 -221,-59l44 -1c8,3 31,32 36,21 3,-6 13,9 20,13 -53,-137 -59,-25 -47,-175 -46,17 -85,28 -135,53 53,-91 23,-107 -12,-202 -7,-18 -32,-105 -32,-107 3,-66 -2,33 31,-76 -117,-22 -117,-61 -167,-154 -101,-185 26,3 -28,-153 -48,41 -75,38 -110,-22 -5,-9 -20,-40 -23,-49l-37 -119c-2,-12 -9,-14 -12,-22 135,-65 65,-57 -50,-61 28,-120 -1,-68 -42,-139l-121 -359c-19,-58 -27,-86 6,-141 -166,-46 -140,-151 -154,-318 -62,-27 -30,-3 -76,-28l47 -53c-104,-104 -30,-5 -73,-120l-19 -39c-1,-3 -4,-9 -5,-12 -15,-44 7,-5 -13,-59 -2,-4 -5,-12 -7,-17l-31 -48c-132,-217 -43,-285 -206,-611l-122 -144c6,-5 15,-9 19,-12l46 -42c37,-52 33,-101 89,-136l-68 -24c-2,-6 -10,-3 -15,-5l62 -74c-112,-28 -97,-106 -112,-219l-6 -72c3,-59 29,-75 70,-114 -47,-6 -79,-51 -113,-29 75,-94 31,-27 23,-155 -7,-110 37,-118 25,-198l-33 -97c-1,-6 -1,-14 -1,-19 -9,-87 -31,-94 -60,-187l-28 -99c-16,-50 -82,-215 -29,-274l57 -80c0,-2 -1,-10 -1,-12l-15 -66c-75,-273 76,-151 17,-267 -25,-48 -9,26 -55,-84 41,-64 55,-141 33,-204 -14,-41 -84,-26 38,-166l-65 -9c106,-46 89,-84 140,-204 39,-92 -9,-10 52,-77 86,-95 96,-252 149,-358 73,-145 49,-31 42,-221l121 -18c-65,-72 -45,-17 -16,-89 145,33 84,-29 277,-252 74,-86 -1,-53 141,-70 -52,-18 -62,-49 -2,-74 58,-24 71,11 175,-18 10,-18 50,40 10,-70 105,-13 122,-9 173,-104 1,-3 4,-9 6,-12 2,-5 8,-22 10,-25l199 -9c66,-138 -25,-37 98,-105 70,-39 59,-46 99,-71 77,-47 76,10 200,-82l242 23c149,2 22,12 70,-24 44,58 18,-5 18,45 0,1 -25,69 -25,71 8,-5 37,-20 45,-22l42 -9c9,-1 57,7 65,9 106,25 30,-36 95,62l57 -127c22,51 -12,133 -17,189l94 -114 229 68c123,68 41,-102 140,58 75,-72 17,-33 105,-64 92,190 -91,37 280,277 278,180 255,151 228,297l119 -39c25,169 32,97 108,186 101,116 43,39 15,116 177,13 78,0 183,111 -37,107 -16,16 -47,99l147 38c-55,163 35,214 128,320 -26,83 -7,94 -68,152l54 50c25,22 17,12 36,40l-71 24 115 75 -55 76 78 53c-21,57 7,25 -41,79 121,64 76,212 95,344 18,129 -44,170 34,299 41,69 23,-39 28,55 4,80 5,122 11,237 -27,19 -63,43 -90,61 26,32 58,59 90,89 -23,77 -48,77 -59,115 -1,3 -2,11 -2,14 -16,139 30,78 -65,215l33 438c-35,117 -43,12 -41,166 1,89 -13,95 -78,145 111,118 50,161 83,251l174 80c21,11 -61,-56 37,15 3,2 10,6 12,9 77,72 -21,-6 32,68 9,-35 56,-45 98,-47l118 -205c43,-67 1,3 1,-41l37 -168c23,-308 93,-619 40,-921 6,-4 15,-8 19,-9 66,-29 72,17 91,-121 -47,51 -12,25 -87,60 0,-125 -64,-134 17,-212 94,-91 109,-73 115,-224l38 -196c1,-7 -3,-30 1,-60l32 -104c39,-74 49,-44 60,-154 81,15 60,42 120,-8 185,-154 83,-335 203,-432l34 -22c49,31 34,6 67,66 31,-91 44,-164 80,-253 51,-14 49,35 51,21 101,-35 85,-55 71,-150 110,39 -15,13 94,41 24,-173 29,-64 110,-132 60,-50 36,-76 53,-116 3,1 65,8 68,8 46,-1 24,-1 59,-8 6,-1 35,-13 42,-17 -18,50 -29,59 -6,98 86,-123 41,-33 28,-122 -1,-10 -9,-12 -13,-18l89 46 13 -113 84 5c-21,-18 -17,1 -29,-33l8 -50c57,-3 48,26 143,9 238,-43 105,77 377,56 15,-1 59,1 87,-2 -34,41 -23,21 -48,81 104,6 146,26 236,65l-88 27c65,24 27,-1 71,34 135,109 -65,88 181,117 0,140 3,241 125,265 -46,146 26,21 38,131 10,89 -10,-6 -16,58 -12,136 14,32 83,109 58,65 -22,87 -23,85 -2,-5 -11,5 -16,8 74,121 -24,93 101,185l-47 67c-2,-5 -10,13 -15,20 73,43 71,13 77,97 10,143 41,33 -62,114l97 43c-13,98 -1,97 -6,164 -7,95 -18,27 -30,119 -24,184 25,124 -52,291 137,100 112,260 -6,335 10,154 43,110 36,236 -10,168 -10,88 53,201l-30 -19c-6,-3 -28,-16 -35,-19 -49,-22 39,-8 -71,-21l52 241c-117,71 85,-75 -24,13 -99,80 -8,163 -3,279 -54,23 -13,11 -88,28 56,44 20,-47 49,65 4,14 -2,54 -2,62 0,74 -8,53 37,106 -34,27 62,86 -87,19 15,55 14,47 41,113 -45,-5 -79,-11 -97,-12 26,196 28,173 -7,228l-16 82c0,-4 -1,12 -3,18l-93 -56 23 150 -111 59c25,20 20,12 40,30l46 46c-10,6 -17,75 -101,16 14,176 -9,156 -66,323 -42,122 -71,160 -184,243l15 125c-126,79 -66,-16 -88,89 -21,103 -36,77 11,155l-136 -36c3,8 9,17 12,22l46 173c-36,29 -1,3 -54,26 -8,3 -85,-7 -87,76 0,0 52,159 55,168 -124,90 -119,24 -217,189 -15,25 -31,49 -53,85l-121 194c-49,58 -19,62 -129,28 44,174 -23,167 -80,244l-70 51c26,72 22,29 18,130 -48,-32 -29,-33 -91,-38 20,137 29,-6 -69,116 -30,37 -19,57 -59,74 -91,37 -6,24 -66,-22 6,205 24,32 -69,169 -91,133 -6,87 -148,233 -114,118 -150,171 -290,263 -31,-50 7,-14 -45,-68 -20,35 -47,117 -49,119 -37,54 -37,22 -109,66 27,72 22,15 31,133l-112 -29c11,136 -52,92 -129,109 -3,7 -5,16 -7,20l-28 50c-1,-4 -8,9 -11,13l31 48c12,36 13,-41 -2,29 -17,75 -68,104 -131,142 -76,46 33,45 -118,35 16,88 40,66 -5,131 -41,60 -16,-24 -81,81 -16,25 -52,161 -8,212 45,23 -64,56 71,10l-57 62c-3,-6 -13,14 -19,22 65,-5 108,-17 148,-35l32 83 105 -80 59 55c2,-5 8,13 13,19 27,-98 9,-85 36,-181 64,49 11,7 41,65 59,-38 47,-44 94,-98l-41 -141c65,-50 50,-56 100,-107 121,-124 263,-220 413,-318 37,-24 60,-139 118,-182 5,-4 11,-8 17,-11l163 -44c-45,-90 -5,-101 -13,-208 109,-93 221,-122 248,-169 51,-91 -22,61 18,-37l45 -118c32,-38 4,-5 46,-33 62,-41 31,-23 90,-66 56,-41 49,-24 97,-52 -66,-193 93,-159 177,-258 74,-88 113,-214 121,-329l143 -33c4,-103 13,-224 72,-275 57,-49 -12,10 38,-17 158,-82 51,-247 207,-374l76 -85c42,-61 50,-50 67,-72l89 -148c95,-184 -13,-342 210,-467 -15,-148 4,-237 93,-338 3,-4 10,-8 13,-12 127,-147 41,-180 28,-274 -1,-10 -6,-12 -8,-19 27,-40 35,-71 58,-95 76,-77 41,42 61,-32 19,-69 57,-23 71,-172 8,-84 2,29 15,-60 15,-108 -8,-30 -5,-170 0,-3 -1,-11 -2,-13l41 -119c20,32 29,48 54,76l47 -249c1,-15 -14,-106 -13,-120 14,-129 7,1 47,-94l53 -212c1,-3 4,-10 5,-13 23,-75 -27,1 59,-227 -183,-203 -61,-90 -52,-320l9 -104c1,-43 -2,-14 -23,-65 -73,-181 69,-84 -96,-391 21,-59 23,-81 47,-132 32,-70 38,-49 47,-134 -65,-40 -5,-30 -96,-10l7 -202c59,-34 23,2 83,-51 -39,-219 9,-192 -16,-294 -19,-78 -23,-73 -38,-177 -17,-117 -82,-186 -117,-283 -30,-86 35,-31 -36,-92 -112,-95 -57,-64 -77,-266 -117,-26 -75,-41 -170,-41 -3,-7 -5,-17 -6,-21 -1,-4 -3,-15 -4,-20l-70 -285 -119 19 -15 -92c-116,52 -123,23 -185,-74 -50,-79 -73,-73 -146,-79 -24,-2 -36,-4 -54,-10l-121 38 -61 -69c-84,40 -105,95 -317,-45 -66,114 -36,32 -127,114 -26,-39 -28,-54 -58,-91 -58,71 -47,98 -150,131 -110,35 -200,36 -284,138 -60,72 -121,146 -241,156 6,138 -27,74 19,150l-164 2 -73 84c-4,4 -11,8 -15,12l-28 24c-4,4 -10,9 -14,13l-55 54c-5,6 -19,23 -24,29 -26,33 -57,91 -97,111 -95,47 -6,-51 -100,32 35,44 64,140 -16,166 -5,1 -13,0 -18,1 -5,1 -13,-2 -18,-1 -44,6 14,-59 -61,16 -44,44 -19,80 4,134 -41,27 -53,22 -78,52l-42 87c-13,-46 20,-28 -66,-56l24 230c-55,25 -49,24 -88,68 -74,-200 -87,-105 -23,-314 -4,-3 -11,-6 -13,-7l-34 -20c-60,-52 -36,-130 -78,-211 5,-2 14,-1 16,-1 64,-1 -11,76 55,-7 34,-42 -21,-113 -26,-230 -6,-133 -89,-190 -129,-304 -34,-98 -52,-137 -38,-221 -136,-15 -58,-6 -114,-44 -41,-28 -59,-38 -91,-62 -2,-281 -121,-154 -73,-303l-86 17c-24,-85 -45,-171 -124,-228 -5,-3 -12,-6 -17,-10l-93 -72c-4,-3 -9,-10 -13,-13l-37 -20c-49,-30 3,6 -32,-69l-91 -19c-79,-21 -90,-42 -141,-96 -53,-58 -47,23 -55,-119 -158,42 -161,0 -152,-121 -129,-4 -164,-33 -254,17zm-837 9427c-24,31 40,-52 0,0zm-372 -432c-5,64 7,-82 0,0zm-369 -469l-9 -8c-3,3 8,8 9,8zm-473 -683c-37,12 35,-11 0,0zm-127 -463c26,-6 -14,-67 -13,1 1,64 13,-1 13,-1zm-675 -1289l-11 -9c-4,3 10,8 11,9zm-119 -378c26,-4 -17,-63 -14,0 3,57 14,0 14,0zm4417 -4374c-49,-1 60,1 0,0zm120 618c3,79 -4,-96 0,0zm49 240c-42,33 26,11 27,11 51,19 -4,-29 -27,-11zm3338 818c13,74 -23,-130 0,0zm-1970 5364c-31,36 45,37 45,37 32,2 -31,-53 -45,-37zm-470 594c-3,1 35,-7 0,0zm-572 693c11,18 20,-51 -7,-12 -36,53 7,11 7,12zm509 -1291c4,4 31,-44 -6,-6 -1,1 4,4 4,4 0,0 2,2 2,2zm1605 -2653c0,0 2,-2 2,-2 0,-2 -45,-56 -29,-6 17,51 -58,17 27,8zm-2804 -2260c-39,46 9,12 9,13 0,0 -3,-2 -3,-4 0,-4 -4,-12 -7,-9zm7 -701c0,-2 -4,-6 -5,-4 -27,23 7,5 8,6 0,0 -2,-1 -2,-2zm-244 -1148c-29,36 6,9 7,10 6,8 25,-49 -7,-10zm-3579 -554c0,-6 -9,-16 -13,-12 -50,57 18,16 19,16 0,0 -5,-2 -5,-5zm3865 9553c-2,2 5,5 5,5l-5 -5zm-848 -59c-104,-37 -68,-76 -90,66l90 -66zm-232 -206l0 0z"/>
   <path class="fil0" d="M11273 12282c1,-1 6,-3 7,-4l16 -14c70,-129 93,-29 111,-254 2,-26 45,9 -10,-32 -84,-63 -159,-34 -214,-159 -28,-64 -35,-39 16,-92 -88,-18 -81,-30 -129,-83l-53 -83c-27,-63 -35,-57 16,-92 -138,12 -69,18 -115,-77l-51 -66c60,-43 1,-1 64,-26 -26,-54 3,-36 -67,-83l-123 -113c-2,-2 -8,-6 -10,-8l-51 -67c-134,-198 -180,-234 -203,-384l-93 18c5,-126 5,-154 -34,-260l-56 -184c-28,-64 -26,-47 -49,-109l-67 -165c-3,-6 -6,-12 -9,-18l-75 -283c-36,-157 -102,-298 -123,-463l-45 -183c56,-27 36,20 76,0 -19,-56 -82,-103 -63,-204 14,-74 78,-144 87,-184 2,-10 10,-11 14,-17 -112,-52 -89,23 -81,-123 10,-185 3,-9 39,-116 -8,-4 -28,-16 -34,-18 -5,-2 -14,-6 -18,-8 -37,-15 -5,-8 -61,-19 84,-209 5,-39 -8,-131 -7,-49 67,-22 76,-79 36,-229 -85,-349 149,-573l74 -85c54,-57 119,-72 221,-72l10 92c24,-12 3,-19 53,-14 100,9 -15,-1 50,21l110 1c-48,132 20,76 84,122l120 109c2,-5 11,1 16,3 -28,61 32,80 -68,35l133 153c52,91 123,-39 284,410 19,52 16,28 41,101 -66,44 -51,24 -95,94 22,83 29,39 56,146 86,-89 59,-18 69,-13l-12 226c0,2 0,29 -5,47 -23,87 2,3 -17,34 -2,3 -14,12 -20,19 5,3 12,7 15,8l29 18c3,3 10,9 13,12 2,2 37,41 38,42 -85,92 -28,90 -83,166 -17,24 -11,-4 -36,40 108,120 21,-35 86,65 28,43 32,92 34,146l95 -13c-5,7 -8,14 -10,19l-26 79 213 -119c51,-22 88,-27 120,-69 4,-5 19,-41 20,-42l5 -150c-7,-56 -26,-62 25,-150 6,2 13,7 16,8 112,53 78,24 97,10 -107,-68 -65,-58 -51,-171 5,-43 54,22 174,-8l-92 -43c3,-5 7,-12 8,-15 1,-3 6,-12 8,-16 2,-6 11,-30 13,-36 41,-114 67,-31 67,-67 39,-31 24,45 56,-81 12,-47 7,-23 -8,-63 186,16 -55,45 115,62 -12,-81 -2,-68 15,-181l92 27c-21,-74 12,-135 62,-206 57,-82 105,-82 181,-133 74,-48 111,-126 181,-191l105 -61c4,-4 207,-337 432,-255l42 32c2,-6 9,12 14,17l139 -65c102,-20 13,3 111,-37l107 125c14,30 -8,41 48,69 32,16 36,-12 67,57l59 217c22,99 104,113 66,218 -72,201 -69,130 -81,379 -19,9 -25,7 -31,10l-33 20c-3,-6 -13,8 -20,13 72,36 33,-66 64,84 -41,57 -131,99 -138,142l-33 245c-80,-29 -8,7 -70,-27l-16 225c-1,-4 -7,12 -11,18 -48,-11 -23,-18 -43,-60 -46,69 -12,70 39,134 -149,44 -23,8 -57,87 -30,70 -35,18 -94,108 -70,105 40,131 -149,193 29,118 -5,183 -95,246 -89,62 -56,104 -94,195 -15,37 -51,84 -74,119 -79,119 -23,134 -190,154l-37 146c-73,-37 22,-5 -95,-33 9,80 27,78 -12,117 -42,42 -35,17 -62,-16 11,94 -16,111 -71,196 -55,83 -71,131 -171,89 -11,273 -134,43 -241,238 -59,-19 -44,-17 -95,-42 -75,119 -53,76 -169,151 -57,37 -42,23 -80,76l-27 45c-75,126 37,-95 -14,27 67,41 136,37 183,89 116,129 53,59 122,93l24 17c3,2 10,9 13,12 36,28 -13,11 47,37 27,-41 43,-67 60,-122 190,14 147,-31 300,39 24,-81 8,-39 14,-88 1,-4 1,-12 2,-17l71 -145c56,57 19,46 53,46 142,-57 215,-293 272,-365 40,-50 45,-95 48,-166 74,20 31,22 120,13 52,-104 108,-251 193,-333 99,-95 53,-158 204,-242 -47,-17 -50,37 -27,-85 50,30 38,20 89,-8l166 -406c83,-28 -80,-1 18,1 10,0 4,6 25,-1 15,-123 115,-215 83,-312 122,-13 197,-134 92,-204l93 -120c3,-4 8,-10 11,-15 59,-91 65,-170 95,-272 27,-90 101,-95 128,-194l22 -422c-21,-93 -1,-63 16,-101l10 -265c-13,-54 20,15 -8,-43l-62 -62c16,-51 19,-31 24,-40 21,-35 -31,-227 -18,-284 -119,14 -49,-3 -127,46 -13,-110 -12,-45 78,-118l-107 -25c-119,-26 -125,-127 -247,-261 -84,44 -17,-2 -79,67 -52,-22 -23,-14 -49,-27l-72 -34c-79,199 -144,44 -202,-28 -45,16 -28,17 -99,15l-90 -22 -75 122c-109,-48 -139,9 -257,-41l-70 117c-146,-26 -94,29 -198,147 -40,45 -29,-21 -32,67 -85,-42 12,-26 -84,-30 -30,99 -283,337 -381,441l-208 193c-108,100 -53,96 -180,138 10,56 7,60 -22,122 -65,-68 -63,-183 -102,-269 -62,-137 -30,-158 -88,-277 -2,-4 -7,-11 -9,-15l-11 -30c-2,-6 -5,-24 -8,-29 -26,-41 -27,-28 -73,-39 23,-77 -20,-57 55,-77 -148,-22 -235,-70 -264,-190l8 -115c-126,-35 -65,-51 -181,-131 44,-153 3,54 42,-73 -51,-26 -97,-35 -179,-6 -42,-44 -41,-70 -100,-94l-244 -89c-68,-12 -147,20 -210,28l-180 28c-137,37 -119,-36 -147,91 -53,-10 -33,5 -62,-35 17,166 -142,137 -268,338 -45,72 64,292 -128,246l95 91c-18,76 -35,76 -43,138 -7,62 14,43 -3,134 -30,159 -3,24 -53,126 -20,42 -38,-18 -7,72 44,126 37,-15 47,110 10,124 10,243 -58,349 75,97 34,90 48,184l-71 199c58,36 46,17 84,40l-42 142 70 43c-73,159 36,115 -17,238 25,10 -20,62 44,-40 9,121 52,185 93,284 36,85 30,227 68,300l124 -7c-31,108 -51,-15 -28,106 66,351 12,292 119,308l-68 65c100,35 72,20 102,95l-54 25c-5,2 -25,0 -34,2 5,2 13,5 17,7l56 20c12,4 52,19 62,23 -62,130 5,3 -67,56 63,78 82,182 214,166l-66 98c40,18 75,25 112,39 15,55 53,180 7,206l159 130c-60,32 3,31 69,91 78,72 78,110 148,169 -31,58 10,29 -64,66 192,54 91,94 111,205 85,28 43,11 124,9 -36,32 -5,60 25,105l118 124c55,56 -3,0 33,71l139 20c2,5 6,14 7,16l12 31 149 -62z"/>
  </g>
 </g>
</svg>
