<svg xmlns="http://www.w3.org/2000/svg" xml:space="preserve" height="100%" version="1.1" style="shape-rendering:geometricPrecision; text-rendering:geometricPrecision; image-rendering:optimizeQuality; fill-rule:evenodd; clip-rule:evenodd"
viewBox="0 0 14656 14657"
 xmlns:xlink="http://www.w3.org/1999/xlink">
   <path class="fil0" d="M4424 6799c-59,-245 697,-1524 881,-1780 196,-272 371,-496 631,-715 166,-140 743,-554 947,-359 277,265 -485,1458 -823,1802 -290,295 -1220,1111 -1636,1052zm280 -1292c-16,-101 423,-1739 485,-1968 84,-313 189,-524 40,-631 -180,39 -241,503 -289,679l-193 796c-114,489 -268,1035 -414,1519 -77,256 -129,525 -199,780 -68,247 -135,488 -209,729 -91,296 -533,1287 -235,1532l112 -4c195,-212 294,-1448 486,-1811 154,4 778,253 949,328 304,134 694,119 1038,29 517,-135 1243,-863 1497,-974 -30,116 -551,2139 -262,2292 285,53 410,-362 516,-569 124,-243 256,-490 375,-734 224,-460 511,-1006 780,-1441 307,-498 1439,-2410 2048,-2380 225,221 75,771 3,1048l-156 484c-209,576 -671,1234 -1193,1524 -501,279 -397,-249 -248,-406 98,-103 206,-159 323,-232l-35 -152c-471,-126 -975,1056 -331,1089 317,16 485,-168 717,-319 493,-322 994,-1304 1145,-1921 96,-392 333,-1478 -408,-1315 -610,134 -1558,1679 -1895,2212 -260,411 -505,896 -743,1321 -215,384 -374,772 -519,1030 -98,173 -118,265 -203,285 -65,-214 157,-1149 217,-1426 132,-614 559,-1910 805,-2490 79,-187 155,-388 240,-569 76,-160 236,-456 169,-617 -142,-37 -211,166 -264,281l-475 1147c-95,264 -210,541 -286,808l-258 815 -96 -40c-190,112 -738,619 -1287,941 -589,346 -1512,37 -1690,-190 44,-60 556,-325 778,-496 233,-180 457,-360 663,-576 387,-408 808,-1039 918,-1561 248,-1174 -1112,-683 -1914,438 -89,125 -168,215 -255,362 -45,76 -94,118 -123,184 -42,92 -23,153 -121,171z"/>
   <path class="fil0" d="M6705 310c3897,-360 7236,2533 7610,6392 374,3853 -2527,7278 -6366,7621 -3856,345 -7305,-2517 -7633,-6377 -331,-3891 2504,-7279 6388,-7637zm-165 -103c-1886,190 -3427,1081 -4676,2480 -1328,1487 -1841,3463 -1658,5423 166,1778 1121,3523 2479,4675 1537,1303 3429,1841 5429,1650 1747,-167 3556,-1119 4661,-2488 1301,-1611 1879,-3322 1651,-5410 -199,-1826 -1079,-3481 -2479,-4670 -1548,-1315 -3389,-1863 -5408,-1659z"/>
   <path class="fil0" d="M5039 9436c41,-181 139,-201 311,-191l128 140c33,-206 -211,-229 -314,-198 -125,37 -218,180 -186,327 71,329 583,214 545,-24 -85,-37 -160,-30 -255,-16 33,143 27,-32 176,96 -164,139 -381,121 -406,-133z"/>
   <path class="fil0" d="M10260 9246c464,-34 312,520 0,401 -123,-47 -222,-215 0,-401zm286 401c226,-324 -160,-615 -384,-393 -108,107 -130,278 -4,398 116,110 319,62 472,61 -36,-79 32,-4 -85,-66z"/>
   <path class="fil0" d="M2477 9436c-22,-104 -28,-83 7,-173 99,-40 99,-38 188,20l-14 144 -181 10zm140 102c46,-71 146,-108 122,-225 -22,-110 -122,-138 -221,-135 -162,4 -129,93 -128,230 3,326 -34,275 65,305l22 -186c89,11 76,25 134,107 56,79 45,90 129,61l-124 -157z"/>
   <path class="fil0" d="M3712 9648c-29,-118 -34,-276 0,-388 312,-86 409,417 0,388zm-94 64c229,4 425,7 418,-278 -5,-206 -249,-337 -420,-212l3 490z"/>
   <path class="fil0" d="M3260 9247l116 121 -6 179c-322,405 -683,-347 -110,-300zm162 290c75,-354 -334,-510 -496,-205 -184,347 419,565 496,205z"/>
   <path class="fil0" d="M4286 9435c-19,-102 -25,-83 7,-172 148,-61 234,-9 190,160l-197 12zm261 1c1,-177 17,-127 -46,-242l-281 3c-11,98 -7,189 -8,289 -3,287 -9,180 53,232l18 -181c184,8 126,231 265,153l-108 -175 107 -78z"/>
   <path class="fil0" d="M5716 9180c-72,117 -87,523 163,539 362,22 205,-513 202,-519 -54,27 -54,-58 -50,208 7,421 -242,219 -243,216 -46,-119 27,-353 -72,-444z"/>
   <path class="fil0" d="M8197 9723c51,-87 19,-120 40,-223 96,-36 123,-27 222,-3 5,187 -24,149 36,221 45,-46 32,-488 16,-521 -82,49 -50,110 -54,219l-205 -10c-43,-114 -4,-125 -53,-207 -61,37 -43,-23 -49,105 -6,128 -17,353 46,420z"/>
   <path class="fil0" d="M11424 9280c44,-66 202,-34 267,-67 -82,-45 -235,-60 -307,-3 -56,82 -31,389 -20,505l321 -10c-58,-84 -115,-40 -245,-59l0 -133c125,-77 131,-2 236,-58 -64,-76 -121,-14 -239,-58l-13 -118z"/>
   <path class="fil0" d="M9335 9333c63,-218 218,-1 298,-66 -137,-180 -377,-86 -363,62 20,208 422,85 296,324 -217,10 -155,28 -271,-58 -11,111 -29,31 49,123 260,-10 208,16 308,-74l1 -131c-126,-117 -212,-84 -319,-181z"/>
   <path class="fil0" d="M6886 9268c222,-74 133,18 262,19 5,-80 0,-25 -40,-101 -171,-14 -226,-34 -302,119 59,282 405,84 286,341 -200,66 -153,-12 -282,-54 12,113 50,125 175,127 282,5 251,-236 78,-287 -133,-40 -179,-15 -178,-165z"/>
   <path class="fil0" d="M6357 9248c169,-20 150,20 244,-20 -21,-23 -453,-284 -300,498 110,-18 210,14 296,-34 -63,-53 -138,-23 -247,-39l9 -168 232 -21c-48,-74 -131,-46 -236,-43l3 -172z"/>
   <path class="fil0" d="M11990 9251c143,-86 131,70 247,25 -64,-160 -298,-160 -355,53 102,230 406,93 295,325 -220,8 -155,27 -281,-67 4,190 250,159 351,76 61,-342 -183,-139 -305,-358l48 -54z"/>
   <path class="fil0" d="M7740 9448c-31,-109 -35,-88 -2,-201l165 6c49,102 48,72 6,182l-168 13zm256 -166c-78,-89 -198,-151 -309,-75 -69,93 -54,413 3,517 44,-73 -6,-171 77,-207 14,-6 153,-30 210,-46l19 -189z"/>
   <path class="fil0" d="M11074 9712c98,-88 96,-72 100,-222 3,-100 13,-223 -26,-296 -66,108 -27,281 -38,410 -94,76 -152,94 -257,2 -34,-131 15,-307 -46,-416 -60,108 -32,314 -17,446l68 75 216 0z"/>
   <path class="fil0" d="M8897 9371c-83,-67 -98,-169 -188,-174 9,25 11,68 41,107 162,217 90,151 114,406l79 3c-14,-176 -26,-168 52,-313 52,-96 113,-143 84,-217 -65,84 -93,150 -181,188z"/>
   <path class="fil0" d="M9813 9704l70 -3c4,-106 1,-213 2,-319 1,-117 38,-185 -78,-190l5 512z"/>
   <path class="fil0" d="M4769 9194c-66,105 -66,432 4,531 48,-110 49,-428 -4,-531z"/>
   <path class="fil0" d="M11795 7626c212,-223 -226,-287 -136,8l136 -8z"/>
</svg>
